<?xml version="1.0" encoding="utf-8"?>
<!-- Generator: Adobe Illustrator 24.3.0, SVG Export Plug-In . SVG Version: 6.00 Build 0)  -->
<svg version="1.1" id="Capa_1" xmlns="http://www.w3.org/2000/svg" xmlns:xlink="http://www.w3.org/1999/xlink" x="0px" y="0px"
	 viewBox="0 0 512 512" style="enable-background:new 0 0 512 512;" xml:space="preserve">
<style type="text/css">
	.st0{fill:#F3A83C;}
</style>
<g>
	<path class="st0" d="M417.8,0c-48.5,0-88.6,36.9-93.6,84.1h-65.4c-5.5,0-10,4.5-10,10s4.5,10,10,10h134.9L335,162.9
		c-10.9,6.1-29,6-39.5-0.5c-17.2-10.6-44.2-10.6-61.4,0c-10.8,6.6-29.7,6.6-40.4,0c-11.1-6.9-26.4-9.3-40.4-7.2l-37.4-51H169
		c5.5,0,10-4.5,10-10s-4.5-10-10-10h-67.8L47.5,10.9c-3.3-4.5-9.5-5.4-14-2.1c-4.5,3.3-5.4,9.5-2.1,14l45.1,61.4H10
		c-4,0-7.7,2.4-9.2,6.2s-0.7,8,2.2,10.9l76.7,76.7c0.1,0.1,0.2,0.2,0.3,0.3l64.4,64.4l20.2,47.3c5.4,12.7,12.3,20.6,29.8,20.6h9.7
		v117.2L116.6,494c-3.4,2.6-4.8,7.1-3.4,11.2s5.2,6.8,9.5,6.8h182.6c4.3,0,8.1-2.7,9.5-6.8c1.4-4.1,0-8.6-3.4-11.2l-87.3-66.3V310.5
		h9.7c17.5,0,24.3-7.9,29.8-20.6l20.2-47.3l64.4-64.4c0.1-0.1,0.2-0.2,0.3-0.3l10.5-10.5c16.7,13.5,37.3,20.9,59.1,20.9
		c51.9,0,94.2-42.2,94.2-94.2C512,42.2,469.8,0,417.8,0L417.8,0z M92.8,162.9l-58.7-58.7h57l42.3,57.6c-0.3,0.2-0.7,0.4-1,0.6
		C121.9,168.8,103.7,169,92.8,162.9L92.8,162.9z M275.5,492H152.3l61.6-46.8L275.5,492z M245,282.1c-3.3,7.7-4.3,8.5-11.4,8.5h-39.3
		c-7,0-8.1-0.8-11.4-8.5l-15-35.1H260L245,282.1z M270.9,226.9H156.9l-39.8-39.8c9.3-0.7,18.4-3.3,25.7-7.8
		c10.8-6.6,29.6-6.6,40.4,0c17.2,10.6,44.2,10.6,61.4,0c10.7-6.6,29.6-6.6,40.4,0c7.3,4.5,16.4,7.1,25.7,7.8L270.9,226.9z
		 M344.4,84.1c1.8-13,6.9-24.9,14.5-34.8l34.8,34.8H344.4z M407.8,167.6c-12.7-1.7-24.7-6.6-34.9-14.4l34.9-34.9V167.6z M407.8,70
		L373,35.2c10-7.6,21.9-12.7,34.8-14.5V70z M491.3,84.1H442l34.9-34.9C484.4,59.2,489.6,71.2,491.3,84.1z M427.8,20.7
		c13,1.8,24.9,6.9,34.8,14.5L427.8,70V20.7z M427.8,167.6v-49.3l34.8,34.8C452.7,160.7,440.8,165.9,427.8,167.6z M476.8,139
		L442,104.1h49.3C489.6,117.1,484.4,129,476.8,139z"/>
	<path class="st0" d="M213.9,104.1L213.9,104.1c5.6,0,10-4.5,10-10s-4.5-10-10-10s-10,4.5-10,10S208.4,104.1,213.9,104.1z"/>
</g>
</svg>
